<svg width="25" height="25" viewBox="0 0 25 25" fill="none" xmlns="http://www.w3.org/2000/svg">
<path d="M12.5 0C10.0277 0 7.61099 0.733112 5.55538 2.10663C3.49976 3.48015 1.89761 5.43238 0.951511 7.71646C0.00541617 10.0005 -0.242126 12.5139 0.24019 14.9386C0.722505 17.3634 1.91301 19.5907 3.66117 21.3388C5.40933 23.087 7.63661 24.2775 10.0614 24.7598C12.4861 25.2421 14.9995 24.9946 17.2835 24.0485C19.5676 23.1024 21.5199 21.5002 22.8934 19.4446C24.2669 17.389 25 14.9723 25 12.5C24.996 9.18603 23.6777 6.00895 21.3344 3.66562C18.9911 1.32229 15.814 0.00403126 12.5 0ZM18.3333 13.3333H6.66667C6.44566 13.3333 6.2337 13.2455 6.07742 13.0893C5.92113 12.933 5.83334 12.721 5.83334 12.5C5.83334 12.279 5.92113 12.067 6.07742 11.9107C6.2337 11.7545 6.44566 11.6667 6.66667 11.6667H18.3333C18.5543 11.6667 18.7663 11.7545 18.9226 11.9107C19.0789 12.067 19.1667 12.279 19.1667 12.5C19.1667 12.721 19.0789 12.933 18.9226 13.0893C18.7663 13.2455 18.5543 13.3333 18.3333 13.3333Z" fill="#FFDD2D"/>
</svg>
