<svg width="25" height="25" viewBox="0 0 25 25" fill="none" xmlns="http://www.w3.org/2000/svg">
<path d="M12.5 0C5.59006 0 0 5.59006 0 12.5C0 19.4099 5.59006 25 12.5 25C19.4099 25 25 19.4099 25 12.5C25 5.59006 19.4099 0 12.5 0ZM18.6853 13.2246H13.0435V18.8665C13.0435 19.2547 12.7329 19.5652 12.3447 19.5652C11.9565 19.5652 11.646 19.2547 11.646 18.8665V13.2246H6.03002C5.64182 13.2246 5.33126 12.9141 5.33126 12.5259C5.33126 12.1377 5.64182 11.8271 6.03002 11.8271H11.6718V6.1853C11.6718 5.7971 11.9824 5.48654 12.3706 5.48654C12.7588 5.48654 13.0694 5.7971 13.0694 6.1853V11.8271H18.7112C19.0994 11.8271 19.4099 12.1377 19.4099 12.5259C19.3841 12.9141 19.0735 13.2246 18.6853 13.2246Z" fill="#FFDD2D"/>
</svg>
