<svg width="103" height="80" viewBox="0 0 103 80" fill="none" xmlns="http://www.w3.org/2000/svg">
<path d="M32.9449 55.734C23.9627 55.734 16.6436 45.0164 15.959 35.5433C13.9384 34.9178 12.1177 33.0877 12.1177 30.7785V24.1237C12.1177 22.0441 13.9505 20.5434 15.1471 19.7847V14.1415C15.1471 7.83271 19.7366 2.68189 25.438 2.50221C26.6528 1.9665 31.4514 0 36.353 0C44.1688 0 48.4706 5.02438 48.4706 14.1415V19.279C51.5 19.9278 51.5 22.5997 51.5 24.1237V30.7785C51.5 33.0944 50.5397 34.8213 48.9977 35.4768C48.4161 45.3093 41.7423 55.734 32.9449 55.734ZM36.353 3.3274C31.4393 3.3274 26.3953 5.66324 26.3468 5.68986C26.1529 5.77637 25.953 5.82296 25.75 5.82296C21.5755 5.82296 18.1765 9.55298 18.1765 14.1415V20.7963C18.1765 21.4484 17.8221 22.0441 17.2828 22.3136C16.2044 22.8493 15.2046 23.7676 15.1441 24.137V30.7785C15.1441 31.5105 16.4164 32.4422 17.4161 32.4422C18.2522 32.4422 18.9308 33.1875 18.9308 34.1059C18.9308 42.3479 25.3956 52.4066 32.9418 52.4066C40.3003 52.4066 46.0077 42.5675 46.0077 34.1059C46.0077 33.1875 46.6863 32.4422 47.5224 32.4422C48.1525 32.4422 48.4706 31.8832 48.4706 30.7785V24.1237C48.4706 22.46 48.4706 22.46 46.9559 22.46C46.1198 22.46 45.4412 21.7146 45.4412 20.7963V14.1415C45.4412 6.86443 42.4694 3.3274 36.353 3.3274Z" fill="black"/>
<path d="M1.51471 79.0258C0.678588 79.0258 0 78.2772 0 77.3621V74.0347C0 64.3986 7.00703 57.3977 16.6618 57.3977H20.397L24.4292 50.7895C24.8957 50.0275 25.8348 49.8212 26.5316 50.3336C27.2253 50.8394 27.4131 51.8775 26.9466 52.6395L22.4661 59.9831C22.1844 60.4489 21.7118 60.7251 21.2059 60.7251H16.6618C8.63685 60.7251 3.02941 66.202 3.02941 74.0347V77.3621C3.02941 78.2772 2.34779 79.0258 1.51471 79.0258Z" fill="black"/>
<path d="M65.1324 79.0259C64.2993 79.0259 63.6177 78.2772 63.6177 77.3622V74.0348C63.6177 66.1987 58.1163 60.7252 50.2337 60.7252H45.6896C45.1897 60.7252 44.7232 60.4557 44.4415 60.0031L39.5247 52.1505C39.0522 51.3918 39.2248 50.357 39.9155 49.8412C40.6093 49.3288 41.5514 49.5118 42.021 50.2771L46.4863 57.4111H50.2337C59.8945 57.4111 66.6471 64.2589 66.6471 74.0481V77.3755C66.6471 78.2772 65.9655 79.0259 65.1324 79.0259Z" fill="black"/>
<path d="M83.3088 79.0258C82.4757 79.0258 81.7941 78.2771 81.7941 77.3621V74.0347C81.7941 66.1986 76.2927 60.725 68.4102 60.725H63.866C63.3632 60.725 62.9027 60.4555 62.6179 60.003L57.7012 52.1503C57.371 51.6213 57.3467 50.9258 57.6376 50.3735L58.3586 49.0226C58.4373 48.8595 58.5494 48.7164 58.6797 48.5933C62.2423 45.246 64.3719 39.7191 64.3719 33.8197C64.3719 32.9013 65.0505 32.156 65.8867 32.156C66.3562 32.156 66.644 32.156 66.644 30.7917V24.1369C66.644 22.4732 66.644 22.4732 65.1293 22.4732C64.2932 22.4732 63.6146 21.7245 63.6146 20.8095V14.1547C63.6146 10.0553 62.7785 7.11058 61.1274 5.40363C59.6188 3.83975 57.3376 3.20754 54.1598 3.39387C53.3297 3.48039 52.6087 2.76167 52.5572 1.83332C52.5057 0.918286 53.1419 0.126364 53.978 0.0731253C58.0253 -0.18974 61.0547 0.748588 63.2086 2.97129C65.4868 5.33042 66.647 9.08706 66.647 14.1414V19.2789C69.6764 19.9211 69.6764 22.5996 69.6764 24.1236V30.7784C69.6764 33.5934 68.4707 34.728 67.3741 35.1772C67.0651 41.4228 64.6809 47.2091 60.8487 50.9258L60.7427 51.1355L64.6658 57.401H68.4102C78.0709 57.401 84.8235 64.2454 84.8235 74.038V77.3654C84.8235 78.2771 84.1419 79.0258 83.3088 79.0258Z" fill="black"/>
<path d="M101.485 79.0258C100.652 79.0258 99.9706 78.2771 99.9706 77.3621V74.0347C99.9706 66.1986 94.4692 60.725 86.5866 60.725H82.0425C81.5396 60.725 81.0792 60.4555 80.7944 60.003L75.8777 52.1503C75.5475 51.6213 75.5232 50.9258 75.814 50.3735L76.535 49.0226C76.6138 48.8595 76.7259 48.7164 76.8562 48.5933C80.4188 45.246 82.5484 39.7191 82.5484 33.8197C82.5484 32.9013 83.227 32.156 84.0631 32.156C84.5327 32.156 84.8205 32.156 84.8205 30.7917V24.1369C84.8205 22.4732 84.8205 22.4732 83.3058 22.4732C82.4697 22.4732 81.7911 21.7245 81.7911 20.8095V14.1547C81.7911 10.0553 80.955 7.11058 79.3039 5.40363C77.7953 3.83975 75.5172 3.20754 72.3363 3.39387C71.5214 3.48039 70.7792 2.76167 70.7368 1.83332C70.6792 0.918286 71.3184 0.126364 72.1575 0.0731253C76.223 -0.18974 79.2343 0.748588 81.3882 2.97129C83.6633 5.33042 84.8235 9.08706 84.8235 14.1414V19.2789C87.8529 19.9211 87.8529 22.5996 87.8529 24.1236V30.7784C87.8529 33.5934 86.6472 34.728 85.5506 35.1772C85.2416 41.4228 82.8574 47.2091 79.0252 50.9258L78.9192 51.1355L82.8423 57.401H86.5866C96.2474 57.401 103 64.2454 103 74.038V77.3654C103 78.2771 102.318 79.0258 101.485 79.0258Z" fill="black"/>
<path d="M27.2648 75.6985C27.1739 75.6985 27.08 75.6885 26.9891 75.6685C26.4983 75.572 26.0833 75.2093 25.8803 74.7102L19.8215 59.7369C19.5519 59.0681 19.7094 58.2795 20.2123 57.8037C20.7182 57.3179 21.4453 57.268 22.0087 57.6506L34.1264 65.9691C34.5172 66.2387 34.7747 66.6879 34.8262 67.1903C34.8807 67.6827 34.7201 68.1985 34.393 68.5479L28.3341 75.2027C28.0463 75.5254 27.6586 75.6985 27.2648 75.6985ZM24.6019 63.3538L27.7555 71.1466L30.9091 67.6827L24.6019 63.3538Z" fill="black"/>
<path d="M39.3794 75.6984C38.9825 75.6984 38.5947 75.5254 38.3069 75.2126L32.2481 68.5578C31.9209 68.2118 31.7604 67.6993 31.8149 67.2002C31.8664 66.7011 32.1269 66.2519 32.5147 65.9824L44.6323 57.6639C45.1958 57.2779 45.9229 57.3278 46.4288 57.8169C46.9317 58.3027 47.0892 59.0814 46.8196 59.7502L40.7608 74.7235C40.5578 75.2193 40.1428 75.5853 39.652 75.6818C39.5641 75.6884 39.4672 75.6984 39.3794 75.6984ZM35.735 67.6827L38.8886 71.1465L42.0422 63.3538L35.735 67.6827Z" fill="black"/>
</svg>
