<svg width="73" height="84" viewBox="0 0 73 84" fill="none" xmlns="http://www.w3.org/2000/svg">
<path d="M29.9821 83.4286H6.51786C2.92391 83.4286 0 80.5047 0 76.9108V27.375C0 23.7811 2.92391 20.8572 6.51786 20.8572H29.9821C33.5761 20.8572 36.5 23.7811 36.5 27.375V76.9108C36.5 80.5047 33.5761 83.4286 29.9821 83.4286ZM6.51786 23.4643C4.36175 23.4643 2.60714 25.2189 2.60714 27.375V76.9108C2.60714 79.0669 4.36175 80.8215 6.51786 80.8215H29.9821C32.1383 80.8215 33.8929 79.0669 33.8929 76.9108V27.375C33.8929 25.2189 32.1383 23.4643 29.9821 23.4643H6.51786Z" fill="black"/>
<path d="M18.25 59.9643C14.6561 59.9643 11.7322 57.0404 11.7322 53.4464C11.7322 49.8525 14.6561 46.9286 18.25 46.9286C21.844 46.9286 24.7679 49.8525 24.7679 53.4464C24.7679 57.0404 21.844 59.9643 18.25 59.9643ZM18.25 49.5357C16.0939 49.5357 14.3393 51.2903 14.3393 53.4464C14.3393 55.6026 16.0939 57.3572 18.25 57.3572C20.4061 57.3572 22.1607 55.6026 22.1607 53.4464C22.1607 51.2903 20.4061 49.5357 18.25 49.5357Z" fill="black"/>
<path d="M9.12507 33.8928C6.96896 33.8928 5.21436 32.1382 5.21436 29.9821C5.21436 27.826 6.96896 26.0714 9.12507 26.0714C11.2812 26.0714 13.0358 27.826 13.0358 29.9821C13.0358 32.1382 11.2812 33.8928 9.12507 33.8928ZM9.12507 28.6786C8.4055 28.6786 7.8215 29.2639 7.8215 29.9821C7.8215 30.7004 8.4055 31.2857 9.12507 31.2857C9.84464 31.2857 10.4286 30.7004 10.4286 29.9821C10.4286 29.2639 9.84464 28.6786 9.12507 28.6786Z" fill="black"/>
<path d="M15.6819 31.2857C14.961 31.2857 14.3718 30.7017 14.3718 29.9822C14.3718 29.2626 14.948 28.6786 15.6676 28.6786H15.6819C16.4015 28.6786 16.9855 29.2626 16.9855 29.9822C16.9855 30.7017 16.4015 31.2857 15.6819 31.2857Z" fill="black"/>
<path d="M27.375 78.2143H9.12498C8.40411 78.2143 7.82141 77.6316 7.82141 76.9107C7.82141 76.1899 8.40411 75.6072 9.12498 75.6072H27.375C28.0959 75.6072 28.6786 76.1899 28.6786 76.9107C28.6786 77.6316 28.0959 78.2143 27.375 78.2143Z" fill="black"/>
<path d="M71.6964 71.6964C70.9755 71.6964 70.3928 71.1137 70.3928 70.3928C70.3928 66.7989 67.4689 63.875 63.875 63.875C63.1541 63.875 62.5714 63.2923 62.5714 62.5714C62.5714 61.8505 63.1541 61.2678 63.875 61.2678C68.9055 61.2678 73 65.3623 73 70.3928C73 71.1137 72.4173 71.6964 71.6964 71.6964Z" fill="black"/>
<path d="M63.8751 63.875H52.1429C51.4221 63.875 50.8394 63.2923 50.8394 62.5714C50.8394 61.8505 51.4221 61.2678 52.1429 61.2678H63.8751C64.5959 61.2678 65.1786 61.8505 65.1786 62.5714C65.1786 63.2923 64.5959 63.875 63.8751 63.875Z" fill="black"/>
<path d="M71.6964 83.4285C70.9755 83.4285 70.3928 82.8458 70.3928 82.1249V70.3928C70.3928 69.6719 70.9755 69.0892 71.6964 69.0892C72.4173 69.0892 73 69.6719 73 70.3928V82.1249C73 82.8458 72.4173 83.4285 71.6964 83.4285Z" fill="black"/>
<path d="M35.6827 63.8437C34.9618 63.8437 34.3792 63.261 34.3792 62.5401V55.2323C34.3792 54.5114 34.9618 53.9287 35.6827 53.9287C36.4036 53.9287 36.9863 54.5114 36.9863 55.2323V62.5401C36.9863 63.2597 36.4036 63.8437 35.6827 63.8437Z" fill="black"/>
<path d="M52.1429 63.875C51.4221 63.875 50.8394 63.2923 50.8394 62.5714V56.3077C50.8394 55.5868 51.4221 55.0042 52.1429 55.0042C52.8638 55.0042 53.4465 55.5868 53.4465 56.3077V62.5714C53.4465 63.2923 52.8638 63.875 52.1429 63.875Z" fill="black"/>
<path d="M45.6249 58.6503C41.7273 58.6503 37.8935 57.6243 34.5407 55.6833C33.9176 55.3235 33.7038 54.5244 34.0662 53.9026C34.426 53.2795 35.2211 53.0618 35.8469 53.4281C38.8047 55.1397 42.1848 56.0444 45.6249 56.0444C46.3458 56.0444 46.9285 56.6271 46.9285 57.348C46.9285 58.0689 46.3458 58.6503 45.6249 58.6503Z" fill="black"/>
<path d="M45.625 58.6503C44.9041 58.6503 44.3214 58.0676 44.3214 57.3467C44.3214 56.6258 44.9041 56.0431 45.625 56.0431C54.9546 56.0431 63.0251 49.4067 64.8136 40.2647C64.9517 39.5582 65.627 39.0928 66.3439 39.2349C67.0505 39.3731 67.5119 40.0575 67.3725 40.764C65.3441 51.1287 56.1983 58.6503 45.625 58.6503Z" fill="black"/>
<path d="M69.0893 27.375C68.3684 27.375 67.7857 26.791 67.7857 26.0714C67.7857 13.1335 57.2593 2.60714 44.3214 2.60714C32.7092 2.60714 22.9637 10.9161 21.1491 22.3654C21.037 23.0758 20.3696 23.5594 19.6578 23.4486C18.9461 23.3365 18.4611 22.6678 18.5746 21.9561C20.5912 9.2332 31.4199 0 44.3214 0C58.6972 0 70.3928 11.6956 70.3928 26.0714C70.3928 26.791 69.8101 27.375 69.0893 27.375Z" fill="black"/>
<path d="M69.0892 57.3572C68.3683 57.3572 67.7856 56.7745 67.7856 56.0536V26.3452C67.7856 25.6256 68.3683 25.0416 69.0892 25.0416C69.8101 25.0416 70.3928 25.6256 70.3928 26.3452V56.0536C70.3928 56.7745 69.8101 57.3572 69.0892 57.3572Z" fill="black"/>
<path d="M69.0893 43.0179C68.9276 43.0179 68.7634 42.9879 68.6057 42.9254L34.7102 29.3682C34.0415 29.0997 33.7156 28.3423 33.9828 27.6736C34.25 27.0048 35.0126 26.6828 35.6774 26.9475L69.5729 40.5046C70.2416 40.7732 70.5675 41.5305 70.3003 42.1993C70.0956 42.7077 69.6055 43.0179 69.0893 43.0179Z" fill="black"/>
<path d="M66.4822 59.9539C65.7613 59.9539 65.1786 59.3712 65.1786 58.6503C65.1786 57.9295 65.7613 57.3468 66.4822 57.3468C67.2017 57.3468 67.7857 56.7628 67.7857 56.0432C67.7857 55.3223 68.3684 54.7396 69.0893 54.7396C69.8102 54.7396 70.3929 55.3223 70.3929 56.0432C70.3929 58.1993 68.6383 59.9539 66.4822 59.9539Z" fill="black"/>
<path d="M66.4822 59.9643H52.1429C51.4221 59.9643 50.8394 59.3816 50.8394 58.6607C50.8394 57.9399 51.4221 57.3572 52.1429 57.3572H66.4822C67.2031 57.3572 67.7858 57.9399 67.7858 58.6607C67.7858 59.3816 67.2031 59.9643 66.4822 59.9643Z" fill="black"/>
<path d="M29.9822 23.4642C29.2613 23.4642 28.6786 22.8802 28.6786 22.1607V5.87645C28.6786 5.15688 29.2613 4.57288 29.9822 4.57288C30.703 4.57288 31.2857 5.15688 31.2857 5.87645V22.1607C31.2857 22.8802 30.703 23.4642 29.9822 23.4642Z" fill="black"/>
<path d="M43.6683 69.0892C43.435 69.0892 43.2003 69.0267 42.9866 68.8963L34.5133 63.682C33.9007 63.3053 33.7103 62.5023 34.0871 61.8883C34.4625 61.2756 35.2629 61.084 35.8808 61.462L44.354 66.6763C44.9667 67.0531 45.157 67.8561 44.7803 68.47C44.5339 68.8689 44.1063 69.0892 43.6683 69.0892Z" fill="black"/>
<path d="M43.6709 69.0893C43.2329 69.0893 42.8054 68.869 42.559 68.4688C42.1823 67.8548 42.3726 67.0518 42.9853 66.6751L51.4585 61.4608C52.0751 61.0828 52.8755 61.2744 53.2522 61.8871C53.6289 62.5011 53.4386 63.3041 52.8259 63.6808L44.3527 68.8951C44.1389 69.0267 43.9043 69.0893 43.6709 69.0893Z" fill="black"/>
<path d="M43.6684 75.6072C43.4207 75.6072 43.1691 75.5355 42.9462 75.3882L34.4678 69.7359C33.8682 69.3357 33.7065 68.5275 34.1067 67.9279C34.5056 67.3282 35.3125 67.1666 35.9148 67.5668L44.3932 73.2191C44.9928 73.6193 45.1545 74.4275 44.7543 75.0271C44.504 75.4039 44.0895 75.6072 43.6684 75.6072Z" fill="black"/>
<path d="M43.6709 75.6072C43.2498 75.6072 42.8353 75.4038 42.585 75.0271C42.1848 74.4274 42.3464 73.6192 42.9461 73.219L60.5443 61.4869C61.1452 61.088 61.9534 61.2483 62.3523 61.848C62.7525 62.4476 62.5909 63.2558 61.9913 63.656L44.393 75.3882C44.1701 75.5355 43.9185 75.6072 43.6709 75.6072Z" fill="black"/>
</svg>
