<svg width="106" height="71" viewBox="0 0 106 71" fill="none" xmlns="http://www.w3.org/2000/svg">
<path d="M99.369 0H68.4743C64.8964 0 62 2.89638 62 6.47426V29.4181C62 32.996 64.8964 35.8924 68.4743 35.8924H92.7243L98.6307 39.9814C98.8011 40.095 99.0282 40.1518 99.2554 40.1518C99.4258 40.1518 99.5961 40.095 99.7665 40.0382C100.107 39.8678 100.391 39.4703 100.391 39.0727L100.505 35.8356C103.572 35.3245 105.9 32.6553 105.9 29.4181V6.47426C105.843 2.89638 102.947 0 99.369 0ZM103.628 29.4181C103.628 31.7466 101.754 33.6775 99.369 33.6775C98.7443 33.6775 98.2899 34.1318 98.2331 34.7565L98.1763 36.9714L93.6898 33.9047C93.5194 33.7911 93.2923 33.7343 93.0651 33.7343H68.4743C66.1458 33.7343 64.2149 31.8602 64.2149 29.4749V6.47426C64.2149 4.1458 66.089 2.21488 68.4743 2.21488H99.369C101.697 2.21488 103.628 4.08901 103.628 6.47426V29.4181Z" fill="black"/>
<path d="M76.1412 25.3291C77.3958 25.3291 78.4128 24.312 78.4128 23.0574C78.4128 21.8028 77.3958 20.7858 76.1412 20.7858C74.8866 20.7858 73.8695 21.8028 73.8695 23.0574C73.8695 24.312 74.8866 25.3291 76.1412 25.3291Z" fill="black"/>
<path d="M76.1412 15.1066C77.3958 15.1066 78.4128 14.0895 78.4128 12.8349C78.4128 11.5803 77.3958 10.5632 76.1412 10.5632C74.8866 10.5632 73.8695 11.5803 73.8695 12.8349C73.8695 14.0895 74.8866 15.1066 76.1412 15.1066Z" fill="black"/>
<path d="M84.8871 8.17798C84.2623 8.17798 83.7512 8.6891 83.7512 9.31381C83.7512 9.93852 84.2623 10.4496 84.8871 10.4496C89.3736 10.4496 92.9515 14.0843 92.9515 18.5141C92.9515 23.0006 89.3168 26.5785 84.8871 26.5785C84.2623 26.5785 83.7512 27.0896 83.7512 27.7143C83.7512 28.339 84.2623 28.8502 84.8871 28.8502C90.5662 28.8502 95.2232 24.1933 95.2232 18.5141C95.2232 12.8349 90.623 8.17798 84.8871 8.17798Z" fill="black"/>
<path d="M59.5096 58.018C59.0404 58.4872 59.1186 59.2692 59.5878 59.6602C62.3247 62.1625 63.6541 65.5251 63.6541 69.6696C63.6541 70.2952 64.2015 70.8426 64.8271 70.8426C65.4527 70.8426 66.0001 70.2952 66.0001 69.6696C66.0001 64.8213 64.3579 60.9113 61.1517 57.9398C60.6825 57.5488 59.9006 57.5488 59.5096 58.018Z" fill="black"/>
<path d="M42.6967 52.3877C42.1493 52.0749 41.4455 52.3095 41.1327 52.8569L33 67.2455L24.9455 52.7787C24.7109 52.3877 24.3981 52.2313 24.0071 52.1531C23.5379 52.1531 11.5735 51.6057 4.69194 58.0963C1.56398 61.0678 0 64.9778 0 69.6697C0 70.2953 0.547393 70.8427 1.17299 70.8427C1.79858 70.8427 2.34597 70.2953 2.34597 69.6697C2.34597 65.6034 3.67536 62.319 6.25592 59.8948C11.5735 54.8901 20.7227 54.5773 23.2251 54.5773L31.9834 70.2953C32.218 70.6863 32.609 70.9209 33 70.9209C33.391 70.9209 33.782 70.6863 34.0166 70.2953L43.0877 54.0299C43.4005 53.4043 43.2441 52.7005 42.6967 52.3877Z" fill="black"/>
<path d="M56.6161 24.7834C56.7725 22.2811 56.9289 20.1697 57.0071 18.4493C57.3199 11.3332 53.5664 7.57964 49.9692 6.40666C46.763 5.39007 43.4787 6.32846 41.3673 8.67443C38.865 7.18865 35.9716 6.32846 33 6.32846C22.8341 6.32846 14.545 15.7905 14.545 27.4422C14.545 39.0939 22.8341 48.5559 33 48.5559C36.9882 48.5559 40.6635 47.0702 43.7133 44.646C43.5569 52.6223 45.6683 63.4138 57.9455 64.7431C58.0237 64.7431 58.0237 64.7431 58.1019 64.7431C58.5711 64.7431 59.0403 64.4303 59.1967 63.9611C59.3531 63.492 59.1967 62.8664 58.8057 62.5536C54.5048 59.582 55.9123 36.1223 56.6161 24.7834ZM33 8.75263C40.6635 8.75263 46.9976 14.9304 48.718 23.2194C43.5569 21.8901 40.5071 16.6507 40.5071 16.6507C40.3507 16.3379 40.1161 16.1815 39.8033 16.1033C39.4905 16.0251 39.1777 16.1033 38.8649 16.2597C38.7867 16.3379 27.9171 23.0631 17.282 23.4541C18.846 15.0086 25.3365 8.75263 33 8.75263ZM33 46.2882C24.0853 46.2882 16.891 37.8427 16.891 27.5204C16.891 26.8948 16.891 26.3474 16.9692 25.8C26.5877 25.5654 36.128 20.5607 39.1777 18.8403C40.5071 20.7953 43.9479 24.7834 49.109 25.7218C49.1872 26.3474 49.1872 26.973 49.1872 27.5204C49.109 37.8427 41.9147 46.2882 33 46.2882ZM46.1375 42.3C49.4218 38.4683 51.455 33.2289 51.455 27.5204C51.455 20.2479 48.2488 13.8356 43.3223 10.082C44.8081 8.51803 46.9976 7.97064 49.1872 8.67443C52.0024 9.53462 54.8176 12.5844 54.583 18.3711C54.5048 20.0915 54.3484 22.2029 54.192 24.7052C53.3318 40.736 52.7062 55.5939 55.4431 62.0062C48.4834 59.973 45.2773 53.2479 46.1375 42.3Z" fill="black"/>
</svg>
