<svg width="264" height="264" viewBox="0 0 264 264" fill="none" xmlns="http://www.w3.org/2000/svg">
<path d="M208.22 186.612C207.781 187.051 207.174 187.323 206.505 187.323L56.6935 187.47C55.971 187.47 55.2862 187.149 54.8264 186.592L10.7995 133.315C10.0597 132.419 10.0606 131.123 10.8025 130.227L54.9327 76.8642C55.3959 76.3023 56.0797 75.9836 56.8015 75.9829L206.614 75.8376C207.952 75.8357 209.036 76.9198 209.034 78.2585L208.931 184.897C208.931 185.567 208.659 186.173 208.22 186.612ZM57.8393 182.621L204.087 182.479L204.186 80.6869L57.9385 80.8286L15.8141 131.766L57.8393 182.621Z" fill="#FFDD2D"/>
<path d="M73.5942 146.105C73.1447 146.554 72.5306 146.816 71.8797 146.817L56.8792 146.831C56.0113 146.832 55.2104 146.369 54.7786 145.617L51.0349 139.094L47.2493 132.583C46.81 131.828 46.8122 130.893 47.2555 130.138L51.0605 123.656L54.8059 117.145C55.2395 116.391 56.041 115.928 56.9089 115.927L71.9098 115.912C72.7728 115.911 73.57 116.369 74.0032 117.115L81.5424 130.116C81.9752 130.865 81.9757 131.787 81.5441 132.538L77.7877 139.068L73.9755 145.609C73.869 145.793 73.7403 145.959 73.5942 146.105ZM58.2864 141.982L70.4912 141.971L73.5941 136.646L76.646 131.34L70.5114 120.761L58.3067 120.773L55.2503 126.086L52.1519 131.364L55.2329 136.663L58.2864 141.982Z" fill="#FFDD2D"/>
</svg>
